<svg xmlns="http://www.w3.org/2000/svg" width="147" height="147" viewBox="0 0 147 147"><defs><clipPath id="o5voa"><path fill="#fff" d="M0 147V0h147v147zm3-73.5C3 112.436 34.564 144 73.5 144S144 112.436 144 73.5 112.436 3 73.5 3 3 34.564 3 73.5z"/></clipPath></defs><g><g><path fill="#fff" d="M73.5 3C112.436 3 144 34.564 144 73.5S112.436 144 73.5 144 3 112.436 3 73.5 34.564 3 73.5 3z"/><path fill="none" stroke="#fff" stroke-linecap="round" stroke-linejoin="round" stroke-miterlimit="20" stroke-width="6" d="M73.5 3C112.436 3 144 34.564 144 73.5S112.436 144 73.5 144 3 112.436 3 73.5 34.564 3 73.5 3z" clip-path="url(&quot;#o5voa&quot;)"/></g></g></svg>